<svg width="512" height="192" viewBox="0 0 512 192" xmlns="http://www.w3.org/2000/svg" xmlns:xlink="http://www.w3.org/1999/xlink"><title>googler</title><defs><path d="M11 6h490a5 5 0 0 1 5 5v18H6V11a5 5 0 0 1 5-5z" id="a"/></defs><g fill="none" fill-rule="evenodd"><path d="M0 0h512v192H0z"/><path d="M6 29h500v152a5 5 0 0 1-5 5H11a5 5 0 0 1-5-5V29z" fill="#002B36"/><use fill="#F6F6F6" xlink:href="#a"/><path stroke="#CCC" d="M6.5 28.5h499V11a4.5 4.5 0 0 0-4.5-4.5H11A4.5 4.5 0 0 0 6.5 11v17.5z"/><circle fill="#FC625D" cx="20" cy="18" r="6"/><circle fill="#FEC041" cx="40" cy="18" r="6"/><circle fill="#35CE4B" cx="60" cy="18" r="6"/><g><path d="M61.484 99.125a60.99 60.99 0 0 1 4.102.605c1.354.248 2.63.593 3.828 1.036.964.364 1.849.8 2.656 1.308a8.58 8.58 0 0 1 2.09 1.836 7.998 7.998 0 0 1 1.367 2.5c.326.95.489 2.05.489 3.3 0 1.72-.32 3.282-.957 4.688-.638 1.407-1.576 2.618-2.813 3.633-1.237 1.016-2.754 1.817-4.55 2.403-1.798.586-3.868.905-6.212.957v6.953c0 .911-.214 1.562-.644 1.953-.43.39-1.126.586-2.09.586s-1.66-.195-2.09-.586c-.43-.39-.644-1.042-.644-1.953v-7.383c-1.667-.339-3.17-.866-4.512-1.582a15.403 15.403 0 0 1-3.652-2.715v2.188c0 .911-.215 1.562-.645 1.953-.43.39-1.191.586-2.285.586s-1.856-.196-2.285-.586c-.43-.39-.645-1.042-.645-1.953v-9.375c0-.912.215-1.563.645-1.954.43-.39 1.191-.585 2.285-.585.573 0 1.015.13 1.328.39.313.26.573.664.781 1.211.755 1.953 1.862 3.49 3.32 4.61 1.459 1.12 3.347 1.874 5.665 2.265v-10.898a62.147 62.147 0 0 1-4.082-.664 21.011 21.011 0 0 1-3.73-1.094 11.797 11.797 0 0 1-2.423-1.25 8.405 8.405 0 0 1-1.894-1.758 7.769 7.769 0 0 1-1.25-2.344c-.3-.885-.45-1.9-.45-3.047 0-1.744.352-3.287 1.055-4.629a9.806 9.806 0 0 1 2.91-3.378c1.237-.912 2.696-1.602 4.375-2.07 1.68-.47 3.51-.704 5.489-.704V77.29c0-.911.214-1.562.644-1.953.43-.39 1.126-.586 2.09-.586s1.66.195 2.09.586c.43.39.644 1.042.644 1.953v6.797c1.38.365 2.644.879 3.79 1.543a17.718 17.718 0 0 1 3.085 2.246v-1.758c0-.911.215-1.562.645-1.953.43-.39 1.191-.586 2.285-.586s1.856.195 2.285.586c.43.39.645 1.042.645 1.953v7.422c0 .912-.215 1.563-.645 1.953-.43.39-1.191.586-2.285.586-.885 0-1.51-.338-1.875-1.016-.833-1.588-1.914-2.832-3.242-3.73-1.328-.898-2.89-1.517-4.688-1.855v9.648zm0 16.602c2.787-.13 4.877-.743 6.27-1.836 1.393-1.094 2.09-2.487 2.09-4.18 0-.938-.3-1.686-.899-2.246s-1.406-1.01-2.422-1.348a15.578 15.578 0 0 0-2.324-.566 82.638 82.638 0 0 0-2.715-.41v10.586zm-5.468-26.485c-2.422.052-4.304.521-5.645 1.406-1.341.886-2.012 2.123-2.012 3.711 0 .86.28 1.55.84 2.07.56.522 1.335.938 2.324 1.25a14.17 14.17 0 0 0 2.07.508c.756.13 1.563.26 2.423.391v-9.336z" fill="#93A1A1"/><path d="M131.219 106.977c0-1.928-.3-3.646-.899-5.157-.599-1.51-1.432-2.78-2.5-3.808-1.067-1.029-2.337-1.817-3.808-2.364-1.472-.546-3.067-.82-4.785-.82-1.771 0-3.347.3-4.727.899-1.38.599-2.54 1.438-3.477 2.52-.937 1.08-1.653 2.362-2.148 3.847-.495 1.484-.742 3.112-.742 4.883 0 1.77.247 3.398.742 4.882.495 1.485 1.21 2.767 2.148 3.848.938 1.08 2.097 1.92 3.477 2.52 1.38.599 2.956.898 4.727.898 1.718 0 3.313-.273 4.785-.82 1.471-.547 2.74-1.335 3.808-2.364 1.068-1.028 1.901-2.298 2.5-3.808.6-1.51.899-3.23.899-5.156zm-21.758 27.265a26.556 26.556 0 0 0 5.664 1.66c1.98.352 3.92.528 5.82.528 1.745 0 3.262-.228 4.551-.684 1.29-.456 2.357-1.107 3.203-1.953a8.018 8.018 0 0 0 1.895-3.027c.416-1.172.625-2.474.625-3.907v-8.046c-1.563 1.953-3.366 3.457-5.41 4.511-2.045 1.055-4.369 1.582-6.973 1.582-2.422 0-4.662-.41-6.719-1.23-2.057-.82-3.834-1.999-5.332-3.535-1.497-1.537-2.676-3.412-3.535-5.625-.86-2.214-1.29-4.727-1.29-7.54 0-2.812.43-5.325 1.29-7.538.86-2.214 2.038-4.089 3.535-5.626 1.498-1.536 3.275-2.714 5.332-3.535 2.057-.82 4.297-1.23 6.719-1.23 2.604 0 4.98.58 7.129 1.738 2.148 1.159 4.03 2.793 5.644 4.903v-3.126c0-.99.19-1.68.567-2.07.377-.39 1.009-.586 1.894-.586h6.211c.886 0 1.517.196 1.895.586.377.39.566 1.08.566 2.07 0 .99-.189 1.68-.566 2.07-.378.391-1.01.587-1.895.587h-3.203v32.148c0 2.344-.358 4.434-1.074 6.27-.716 1.836-1.764 3.385-3.145 4.648-1.38 1.263-3.073 2.233-5.078 2.91-2.005.677-4.284 1.016-6.836 1.016-2.265 0-4.544-.195-6.836-.586a34.8 34.8 0 0 1-6.523-1.758c-.703-.286-1.165-.716-1.387-1.289-.221-.573-.163-1.354.176-2.344.339-.99.775-1.64 1.309-1.953.533-.312 1.126-.325 1.777-.039z" fill="#4285F4"/><path d="M149.688 107.953c0-2.76.488-5.293 1.464-7.598.977-2.304 2.325-4.296 4.043-5.976 1.72-1.68 3.757-2.988 6.114-3.926 2.356-.937 4.915-1.406 7.675-1.406s5.32.469 7.676 1.406c2.357.938 4.395 2.246 6.113 3.926 1.72 1.68 3.067 3.672 4.043 5.976.977 2.305 1.465 4.838 1.465 7.598s-.488 5.293-1.465 7.598c-.976 2.304-2.324 4.297-4.043 5.976-1.718 1.68-3.756 2.989-6.113 3.926-2.357.938-4.915 1.406-7.676 1.406-2.76 0-5.319-.468-7.675-1.406-2.357-.937-4.395-2.246-6.114-3.926-1.718-1.68-3.066-3.672-4.043-5.976-.976-2.305-1.464-4.837-1.464-7.598zm6.171 0c0 1.901.32 3.652.957 5.254.638 1.602 1.53 2.988 2.676 4.16 1.146 1.172 2.526 2.084 4.14 2.735 1.615.65 3.4.976 5.352.976 1.954 0 3.737-.325 5.352-.976 1.615-.651 2.995-1.563 4.14-2.735 1.146-1.172 2.038-2.558 2.676-4.16.638-1.602.957-3.353.957-5.254 0-1.9-.319-3.652-.957-5.254-.638-1.601-1.53-2.988-2.675-4.16-1.146-1.172-2.526-2.083-4.141-2.734-1.615-.651-3.398-.977-5.352-.977-1.953 0-3.737.326-5.351.977-1.615.65-2.995 1.562-4.14 2.734-1.147 1.172-2.039 2.559-2.677 4.16-.638 1.602-.957 3.353-.957 5.254z" fill="#EA4335"/><path d="M197.688 107.953c0-2.76.488-5.293 1.464-7.598.977-2.304 2.325-4.296 4.043-5.976 1.72-1.68 3.757-2.988 6.114-3.926 2.356-.937 4.915-1.406 7.675-1.406s5.32.469 7.676 1.406c2.357.938 4.395 2.246 6.113 3.926 1.72 1.68 3.067 3.672 4.043 5.976.977 2.305 1.465 4.838 1.465 7.598s-.488 5.293-1.465 7.598c-.976 2.304-2.324 4.297-4.043 5.976-1.718 1.68-3.756 2.989-6.113 3.926-2.357.938-4.915 1.406-7.676 1.406-2.76 0-5.319-.468-7.675-1.406-2.357-.937-4.395-2.246-6.114-3.926-1.718-1.68-3.066-3.672-4.043-5.976-.976-2.305-1.464-4.837-1.464-7.598zm6.171 0c0 1.901.32 3.652.957 5.254.638 1.602 1.53 2.988 2.676 4.16 1.146 1.172 2.526 2.084 4.14 2.735 1.615.65 3.4.976 5.352.976 1.954 0 3.737-.325 5.352-.976 1.615-.651 2.995-1.563 4.14-2.735 1.146-1.172 2.038-2.558 2.676-4.16.638-1.602.957-3.353.957-5.254 0-1.9-.319-3.652-.957-5.254-.638-1.601-1.53-2.988-2.675-4.16-1.146-1.172-2.526-2.083-4.141-2.734-1.615-.651-3.398-.977-5.352-.977-1.953 0-3.737.326-5.351.977-1.615.65-2.995 1.562-4.14 2.734-1.147 1.172-2.039 2.559-2.677 4.16-.638 1.602-.957 3.353-.957 5.254z" fill="#FBBC05"/><path d="M275.219 106.977c0-1.928-.3-3.646-.899-5.157-.599-1.51-1.432-2.78-2.5-3.808-1.067-1.029-2.337-1.817-3.808-2.364-1.472-.546-3.067-.82-4.785-.82-1.771 0-3.347.3-4.727.899-1.38.599-2.54 1.438-3.477 2.52-.937 1.08-1.653 2.362-2.148 3.847-.495 1.484-.742 3.112-.742 4.883 0 1.77.247 3.398.742 4.882.495 1.485 1.21 2.767 2.148 3.848.938 1.08 2.097 1.92 3.477 2.52 1.38.599 2.956.898 4.727.898 1.718 0 3.313-.273 4.785-.82 1.471-.547 2.74-1.335 3.808-2.364 1.068-1.028 1.901-2.298 2.5-3.808.6-1.51.899-3.23.899-5.156zm-21.758 27.265a26.556 26.556 0 0 0 5.664 1.66c1.98.352 3.92.528 5.82.528 1.745 0 3.262-.228 4.551-.684 1.29-.456 2.357-1.107 3.203-1.953a8.018 8.018 0 0 0 1.895-3.027c.416-1.172.625-2.474.625-3.907v-8.046c-1.563 1.953-3.366 3.457-5.41 4.511-2.045 1.055-4.369 1.582-6.973 1.582-2.422 0-4.662-.41-6.719-1.23-2.057-.82-3.834-1.999-5.332-3.535-1.497-1.537-2.676-3.412-3.535-5.625-.86-2.214-1.29-4.727-1.29-7.54 0-2.812.43-5.325 1.29-7.538.86-2.214 2.038-4.089 3.535-5.626 1.498-1.536 3.275-2.714 5.332-3.535 2.057-.82 4.297-1.23 6.719-1.23 2.604 0 4.98.58 7.129 1.738 2.148 1.159 4.03 2.793 5.644 4.903v-3.126c0-.99.19-1.68.567-2.07.377-.39 1.009-.586 1.894-.586h6.211c.886 0 1.517.196 1.895.586.377.39.566 1.08.566 2.07 0 .99-.189 1.68-.566 2.07-.378.391-1.01.587-1.895.587h-3.203v32.148c0 2.344-.358 4.434-1.074 6.27-.716 1.836-1.764 3.385-3.145 4.648-1.38 1.263-3.073 2.233-5.078 2.91-2.005.677-4.284 1.016-6.836 1.016-2.265 0-4.544-.195-6.836-.586a34.8 34.8 0 0 1-6.523-1.758c-.703-.286-1.165-.716-1.387-1.289-.221-.573-.163-1.354.176-2.344.339-.99.775-1.64 1.309-1.953.533-.312 1.126-.325 1.777-.039z" fill="#4285F4"/><path d="M310.602 80.063h-10.664c-.886 0-1.517-.196-1.895-.586-.378-.391-.566-1.081-.566-2.07 0-.99.188-1.68.566-2.071.378-.39 1.01-.586 1.894-.586H314c.885 0 1.517.195 1.895.586.377.39.566 1.08.566 2.07v43.281H329c.885 0 1.517.196 1.895.586.377.391.566 1.081.566 2.07 0 .99-.189 1.68-.566 2.071-.378.39-1.01.586-1.895.586h-30.625c-.885 0-1.517-.195-1.895-.586-.377-.39-.566-1.08-.566-2.07 0-.99.189-1.68.566-2.07.378-.391 1.01-.587 1.895-.587h12.227V80.064z" fill="#34A853"/><path d="M348.875 109.398c.208 3.933 1.296 6.882 3.262 8.848 1.966 1.966 4.772 2.95 8.418 2.95 2.63 0 5.182-.3 7.656-.9 2.474-.598 4.61-1.418 6.406-2.46.834-.469 1.53-.508 2.09-.117.56.39 1.01 1.002 1.348 1.836.364.833.442 1.582.234 2.246-.208.664-.742 1.217-1.601 1.66-1.016.495-2.142.95-3.38 1.367a36.172 36.172 0 0 1-3.945 1.074 44.55 44.55 0 0 1-4.316.703c-1.485.17-2.982.254-4.492.254-2.865 0-5.404-.436-7.618-1.308-2.213-.873-4.075-2.123-5.585-3.75-1.51-1.628-2.663-3.607-3.457-5.938-.795-2.33-1.192-4.967-1.192-7.91 0-2.838.462-5.423 1.387-7.754.924-2.33 2.207-4.323 3.848-5.976 1.64-1.654 3.6-2.93 5.878-3.828 2.28-.899 4.786-1.348 7.52-1.348 2.89 0 5.443.45 7.656 1.348 2.214.898 4.082 2.141 5.606 3.73 1.523 1.589 2.701 3.477 3.535 5.664.833 2.188 1.328 4.583 1.484 7.188 0 .885-.189 1.51-.566 1.875-.378.364-1.01.546-1.895.546h-28.281zm12.46-14.687c-3.254 0-5.917.814-7.987 2.441-2.07 1.628-3.431 3.887-4.082 6.778h23.867c-.547-2.943-1.784-5.215-3.711-6.817-1.927-1.601-4.623-2.402-8.086-2.402z" fill="#EA4335"/><path d="M399.336 95.219h-4.961c-.885 0-1.517-.196-1.895-.586-.377-.39-.566-1.08-.566-2.07 0-.99.189-1.68.566-2.07.378-.391 1.01-.587 1.895-.587h7.969c.885 0 1.517.196 1.894.586.378.39.567 1.08.567 2.07v7.891a26.574 26.574 0 0 1 3.3-4.726c1.237-1.407 2.56-2.605 3.965-3.594a18.039 18.039 0 0 1 4.375-2.285c1.51-.534 3.008-.801 4.493-.801 2.03 0 3.932.52 5.703 1.562.755.443 1.237.99 1.445 1.641.208.651.13 1.458-.234 2.422-.365.937-.827 1.601-1.387 1.992-.56.39-1.218.365-1.973-.078-1.302-.703-2.67-1.055-4.101-1.055-1.172 0-2.364.215-3.575.645a15.478 15.478 0 0 0-3.515 1.797 17.518 17.518 0 0 0-3.164 2.773 20.316 20.316 0 0 0-2.578 3.574 18.501 18.501 0 0 0-1.739 4.18 16.974 16.974 0 0 0-.625 4.61v7.578h13.164c.886 0 1.517.195 1.895.585.378.391.566 1.081.566 2.07 0 .99-.188 1.68-.566 2.071-.378.39-1.01.586-1.895.586h-25.156c-.885 0-1.517-.195-1.894-.586-.378-.39-.567-1.08-.567-2.07 0-.99.189-1.68.567-2.07.377-.391 1.009-.587 1.894-.587h6.133V95.22zM452.8 139.2h19.8v-66h-19.8z" fill="#93A1A1"/></g></g></svg>