<?xml version="1.0" encoding="UTF-8"?>
<svg width="512px" height="128px" viewBox="0 0 512 128" version="1.1" xmlns="http://www.w3.org/2000/svg" xmlns:xlink="http://www.w3.org/1999/xlink">
    <!-- Generator: Sketch 46.2 (44496) - http://www.bohemiancoding.com/sketch -->
    <title>googler-light</title>
    <desc>Created with Sketch.</desc>
    <defs></defs>
    <g id="no-background-(light)" stroke="none" stroke-width="1" fill="none" fill-rule="evenodd">
        <g id="googler-logo-(no-background-at-all)">
            <rect id="Bounds" x="0" y="0" width="512" height="128"></rect>
            <g id="$-googlerâ–" transform="translate(34.000000, 29.000000)">
                <rect id="cursor" fill="#93A1A1" x="430.5" y="0" width="17.0100002" height="56.1300011"></rect>
                <g id="googler" transform="translate(65.000000, 1.000000)">
                    <path d="M30.21875,32.9765625 C30.21875,31.0494695 29.9192738,29.3307367 29.3203125,27.8203125 C28.7213512,26.3098883 27.8880262,25.0403697 26.8203125,24.0117188 C25.7525988,22.9830678 24.4830803,22.1953152 23.0117188,21.6484375 C21.5403572,21.1015598 19.9453211,20.828125 18.2265625,20.828125 C16.4557203,20.828125 14.8802152,21.1276012 13.5,21.7265625 C12.1197848,22.3255238 10.9609422,23.1653592 10.0234375,24.2460938 C9.08593281,25.3268283 8.36979414,26.6093676 7.875,28.09375 C7.38020586,29.5781324 7.1328125,31.2057203 7.1328125,32.9765625 C7.1328125,34.7474047 7.38020586,36.3749926 7.875,37.859375 C8.36979414,39.3437574 9.08593281,40.6262967 10.0234375,41.7070312 C10.9609422,42.7877658 12.1197848,43.6276012 13.5,44.2265625 C14.8802152,44.8255238 16.4557203,45.125 18.2265625,45.125 C19.9453211,45.125 21.5403572,44.8515652 23.0117188,44.3046875 C24.4830803,43.7578098 25.7525988,42.9700572 26.8203125,41.9414062 C27.8880262,40.9127553 28.7213512,39.6432367 29.3203125,38.1328125 C29.9192738,36.6223883 30.21875,34.9036555 30.21875,32.9765625 Z M8.4609375,60.2421875 C10.2578215,60.9973996 12.1458234,61.5507795 14.125,61.9023438 C16.1041766,62.253908 18.0442613,62.4296875 19.9453125,62.4296875 C21.6901129,62.4296875 23.2070248,62.2018252 24.4960938,61.7460938 C25.7851627,61.2903623 26.8528604,60.6393271 27.6992188,59.7929688 C28.5455771,58.9466104 29.1770813,57.9375059 29.59375,56.765625 C30.0104187,55.5937441 30.21875,54.2916738 30.21875,52.859375 L30.21875,44.8125 C28.6562422,46.7656348 26.8528748,48.269526 24.8085938,49.3242188 C22.7643127,50.3789115 20.4401172,50.90625 17.8359375,50.90625 C15.4140504,50.90625 13.1744895,50.4960979 11.1171875,49.6757812 C9.05988555,48.8554646 7.28255957,47.677091 5.78515625,46.140625 C4.28775293,44.604159 3.1093793,42.7291777 2.25,40.515625 C1.3906207,38.3020723 0.9609375,35.7890766 0.9609375,32.9765625 C0.9609375,30.1640484 1.3906207,27.6510527 2.25,25.4375 C3.1093793,23.2239473 4.28775293,21.348966 5.78515625,19.8125 C7.28255957,18.276034 9.05988555,17.0976604 11.1171875,16.2773438 C13.1744895,15.4570271 15.4140504,15.046875 17.8359375,15.046875 C20.4401172,15.046875 22.8163955,15.6262963 24.9648438,16.7851562 C27.113292,17.9440162 28.9947836,19.5781145 30.609375,21.6875 L30.609375,18.5625 C30.609375,17.5729117 30.7981752,16.8828145 31.1757812,16.4921875 C31.5533873,16.1015605 32.1848914,15.90625 33.0703125,15.90625 L39.28125,15.90625 C40.1666711,15.90625 40.7981752,16.1015605 41.1757812,16.4921875 C41.5533873,16.8828145 41.7421875,17.5729117 41.7421875,18.5625 C41.7421875,19.5520883 41.5533873,20.2421855 41.1757812,20.6328125 C40.7981752,21.0234395 40.1666711,21.21875 39.28125,21.21875 L36.078125,21.21875 L36.078125,53.3671875 C36.078125,55.7109492 35.7200557,57.8007721 35.0039062,59.6367188 C34.2877568,61.4726654 33.2395902,63.0221291 31.859375,64.2851562 C30.4791598,65.5481834 28.7864684,66.5182258 26.78125,67.1953125 C24.7760316,67.8723992 22.4974086,68.2109375 19.9453125,68.2109375 C17.6796762,68.2109375 15.4010531,68.015627 13.109375,67.625 C10.8176969,67.234373 8.64323945,66.6484414 6.5859375,65.8671875 C5.88280898,65.5807277 5.42057402,65.1510445 5.19921875,64.578125 C4.97786348,64.0052055 5.03645664,63.2239633 5.375,62.234375 C5.71354336,61.2447867 6.14973691,60.5937516 6.68359375,60.28125 C7.21745059,59.9687484 7.80989258,59.9557277 8.4609375,60.2421875 Z" id="g" fill="#4285F4"></path>
                    <path d="M48.6875,33.953125 C48.6875,31.1926945 49.1757764,28.6601678 50.1523438,26.3554688 C51.1289111,24.0507697 52.4765539,22.0586021 54.1953125,20.3789062 C55.9140711,18.6992104 57.9518111,17.3906297 60.3085938,16.453125 C62.6653764,15.5156203 65.2239445,15.046875 67.984375,15.046875 C70.7448055,15.046875 73.3033736,15.5156203 75.6601562,16.453125 C78.0169389,17.3906297 80.0546789,18.6992104 81.7734375,20.3789062 C83.4921961,22.0586021 84.8398389,24.0507697 85.8164062,26.3554688 C86.7929736,28.6601678 87.28125,31.1926945 87.28125,33.953125 C87.28125,36.7135555 86.7929736,39.2460822 85.8164062,41.5507812 C84.8398389,43.8554803 83.4921961,45.8476479 81.7734375,47.5273438 C80.0546789,49.2070396 78.0169389,50.5156203 75.6601562,51.453125 C73.3033736,52.3906297 70.7448055,52.859375 67.984375,52.859375 C65.2239445,52.859375 62.6653764,52.3906297 60.3085938,51.453125 C57.9518111,50.5156203 55.9140711,49.2070396 54.1953125,47.5273438 C52.4765539,45.8476479 51.1289111,43.8554803 50.1523438,41.5507812 C49.1757764,39.2460822 48.6875,36.7135555 48.6875,33.953125 Z M54.859375,33.953125 C54.859375,35.8541762 55.1783822,37.6054607 55.8164062,39.2070312 C56.4544303,40.8086018 57.3463484,42.1953066 58.4921875,43.3671875 C59.6380266,44.5390684 61.0182211,45.4505176 62.6328125,46.1015625 C64.2474039,46.7526074 66.0312402,47.078125 67.984375,47.078125 C69.9375098,47.078125 71.7213461,46.7526074 73.3359375,46.1015625 C74.9505289,45.4505176 76.3307234,44.5390684 77.4765625,43.3671875 C78.6224016,42.1953066 79.5143197,40.8086018 80.1523438,39.2070312 C80.7903678,37.6054607 81.109375,35.8541762 81.109375,33.953125 C81.109375,32.0520738 80.7903678,30.3007893 80.1523438,28.6992188 C79.5143197,27.0976482 78.6224016,25.7109434 77.4765625,24.5390625 C76.3307234,23.3671816 74.9505289,22.4557324 73.3359375,21.8046875 C71.7213461,21.1536426 69.9375098,20.828125 67.984375,20.828125 C66.0312402,20.828125 64.2474039,21.1536426 62.6328125,21.8046875 C61.0182211,22.4557324 59.6380266,23.3671816 58.4921875,24.5390625 C57.3463484,25.7109434 56.4544303,27.0976482 55.8164062,28.6992188 C55.1783822,30.3007893 54.859375,32.0520738 54.859375,33.953125 Z" id="o" fill="#EA4335"></path>
                    <path d="M96.6875,33.953125 C96.6875,31.1926945 97.1757764,28.6601678 98.1523438,26.3554688 C99.1289111,24.0507697 100.476554,22.0586021 102.195312,20.3789062 C103.914071,18.6992104 105.951811,17.3906297 108.308594,16.453125 C110.665376,15.5156203 113.223945,15.046875 115.984375,15.046875 C118.744805,15.046875 121.303374,15.5156203 123.660156,16.453125 C126.016939,17.3906297 128.054679,18.6992104 129.773438,20.3789062 C131.492196,22.0586021 132.839839,24.0507697 133.816406,26.3554688 C134.792974,28.6601678 135.28125,31.1926945 135.28125,33.953125 C135.28125,36.7135555 134.792974,39.2460822 133.816406,41.5507812 C132.839839,43.8554803 131.492196,45.8476479 129.773438,47.5273438 C128.054679,49.2070396 126.016939,50.5156203 123.660156,51.453125 C121.303374,52.3906297 118.744805,52.859375 115.984375,52.859375 C113.223945,52.859375 110.665376,52.3906297 108.308594,51.453125 C105.951811,50.5156203 103.914071,49.2070396 102.195312,47.5273438 C100.476554,45.8476479 99.1289111,43.8554803 98.1523438,41.5507812 C97.1757764,39.2460822 96.6875,36.7135555 96.6875,33.953125 Z M102.859375,33.953125 C102.859375,35.8541762 103.178382,37.6054607 103.816406,39.2070312 C104.45443,40.8086018 105.346348,42.1953066 106.492188,43.3671875 C107.638027,44.5390684 109.018221,45.4505176 110.632812,46.1015625 C112.247404,46.7526074 114.03124,47.078125 115.984375,47.078125 C117.93751,47.078125 119.721346,46.7526074 121.335938,46.1015625 C122.950529,45.4505176 124.330723,44.5390684 125.476562,43.3671875 C126.622402,42.1953066 127.51432,40.8086018 128.152344,39.2070312 C128.790368,37.6054607 129.109375,35.8541762 129.109375,33.953125 C129.109375,32.0520738 128.790368,30.3007893 128.152344,28.6992188 C127.51432,27.0976482 126.622402,25.7109434 125.476562,24.5390625 C124.330723,23.3671816 122.950529,22.4557324 121.335938,21.8046875 C119.721346,21.1536426 117.93751,20.828125 115.984375,20.828125 C114.03124,20.828125 112.247404,21.1536426 110.632812,21.8046875 C109.018221,22.4557324 107.638027,23.3671816 106.492188,24.5390625 C105.346348,25.7109434 104.45443,27.0976482 103.816406,28.6992188 C103.178382,30.3007893 102.859375,32.0520738 102.859375,33.953125 Z" id="o" fill="#FBBC05"></path>
                    <path d="M174.21875,32.9765625 C174.21875,31.0494695 173.919274,29.3307367 173.320312,27.8203125 C172.721351,26.3098883 171.888026,25.0403697 170.820312,24.0117188 C169.752599,22.9830678 168.48308,22.1953152 167.011719,21.6484375 C165.540357,21.1015598 163.945321,20.828125 162.226562,20.828125 C160.45572,20.828125 158.880215,21.1276012 157.5,21.7265625 C156.119785,22.3255238 154.960942,23.1653592 154.023438,24.2460938 C153.085933,25.3268283 152.369794,26.6093676 151.875,28.09375 C151.380206,29.5781324 151.132812,31.2057203 151.132812,32.9765625 C151.132812,34.7474047 151.380206,36.3749926 151.875,37.859375 C152.369794,39.3437574 153.085933,40.6262967 154.023438,41.7070312 C154.960942,42.7877658 156.119785,43.6276012 157.5,44.2265625 C158.880215,44.8255238 160.45572,45.125 162.226562,45.125 C163.945321,45.125 165.540357,44.8515652 167.011719,44.3046875 C168.48308,43.7578098 169.752599,42.9700572 170.820312,41.9414062 C171.888026,40.9127553 172.721351,39.6432367 173.320312,38.1328125 C173.919274,36.6223883 174.21875,34.9036555 174.21875,32.9765625 Z M152.460938,60.2421875 C154.257821,60.9973996 156.145823,61.5507795 158.125,61.9023438 C160.104177,62.253908 162.044261,62.4296875 163.945312,62.4296875 C165.690113,62.4296875 167.207025,62.2018252 168.496094,61.7460938 C169.785163,61.2903623 170.85286,60.6393271 171.699219,59.7929688 C172.545577,58.9466104 173.177081,57.9375059 173.59375,56.765625 C174.010419,55.5937441 174.21875,54.2916738 174.21875,52.859375 L174.21875,44.8125 C172.656242,46.7656348 170.852875,48.269526 168.808594,49.3242188 C166.764313,50.3789115 164.440117,50.90625 161.835938,50.90625 C159.41405,50.90625 157.174489,50.4960979 155.117188,49.6757812 C153.059886,48.8554646 151.28256,47.677091 149.785156,46.140625 C148.287753,44.604159 147.109379,42.7291777 146.25,40.515625 C145.390621,38.3020723 144.960938,35.7890766 144.960938,32.9765625 C144.960938,30.1640484 145.390621,27.6510527 146.25,25.4375 C147.109379,23.2239473 148.287753,21.348966 149.785156,19.8125 C151.28256,18.276034 153.059886,17.0976604 155.117188,16.2773438 C157.174489,15.4570271 159.41405,15.046875 161.835938,15.046875 C164.440117,15.046875 166.816396,15.6262963 168.964844,16.7851562 C171.113292,17.9440162 172.994784,19.5781145 174.609375,21.6875 L174.609375,18.5625 C174.609375,17.5729117 174.798175,16.8828145 175.175781,16.4921875 C175.553387,16.1015605 176.184891,15.90625 177.070312,15.90625 L183.28125,15.90625 C184.166671,15.90625 184.798175,16.1015605 185.175781,16.4921875 C185.553387,16.8828145 185.742188,17.5729117 185.742188,18.5625 C185.742188,19.5520883 185.553387,20.2421855 185.175781,20.6328125 C184.798175,21.0234395 184.166671,21.21875 183.28125,21.21875 L180.078125,21.21875 L180.078125,53.3671875 C180.078125,55.7109492 179.720056,57.8007721 179.003906,59.6367188 C178.287757,61.4726654 177.23959,63.0221291 175.859375,64.2851562 C174.47916,65.5481834 172.786468,66.5182258 170.78125,67.1953125 C168.776032,67.8723992 166.497409,68.2109375 163.945312,68.2109375 C161.679676,68.2109375 159.401053,68.015627 157.109375,67.625 C154.817697,67.234373 152.643239,66.6484414 150.585938,65.8671875 C149.882809,65.5807277 149.420574,65.1510445 149.199219,64.578125 C148.977863,64.0052055 149.036457,63.2239633 149.375,62.234375 C149.713543,61.2447867 150.149737,60.5937516 150.683594,60.28125 C151.217451,59.9687484 151.809893,59.9557277 152.460938,60.2421875 Z" id="g" fill="#4285F4"></path>
                    <path d="M209.601562,6.0625 L198.9375,6.0625 C198.052079,6.0625 197.420575,5.86718945 197.042969,5.4765625 C196.665363,5.08593555 196.476562,4.39583828 196.476562,3.40625 C196.476562,2.41666172 196.665363,1.72656445 197.042969,1.3359375 C197.420575,0.945310547 198.052079,0.75 198.9375,0.75 L213,0.75 C213.885421,0.75 214.516925,0.945310547 214.894531,1.3359375 C215.272137,1.72656445 215.460938,2.41666172 215.460938,3.40625 L215.460938,46.6875 L228,46.6875 C228.885421,46.6875 229.516925,46.8828105 229.894531,47.2734375 C230.272137,47.6640645 230.460938,48.3541617 230.460938,49.34375 C230.460938,50.3333383 230.272137,51.0234355 229.894531,51.4140625 C229.516925,51.8046895 228.885421,52 228,52 L197.375,52 C196.489579,52 195.858075,51.8046895 195.480469,51.4140625 C195.102863,51.0234355 194.914062,50.3333383 194.914062,49.34375 C194.914062,48.3541617 195.102863,47.6640645 195.480469,47.2734375 C195.858075,46.8828105 196.489579,46.6875 197.375,46.6875 L209.601562,46.6875 L209.601562,6.0625 Z" id="l" fill="#34A853"></path>
                    <path d="M247.875,35.3984375 C248.083334,39.3307488 249.170563,42.2799381 251.136719,44.2460938 C253.102874,46.2122494 255.908836,47.1953125 259.554688,47.1953125 C262.184909,47.1953125 264.736967,46.8958363 267.210938,46.296875 C269.684908,45.6979137 271.820304,44.8776094 273.617188,43.8359375 C274.450525,43.3671852 275.147133,43.328123 275.707031,43.71875 C276.26693,44.109377 276.716144,44.72135 277.054688,45.5546875 C277.419273,46.388025 277.497397,47.1367154 277.289062,47.8007812 C277.080728,48.4648471 276.546879,49.018227 275.6875,49.4609375 C274.67187,49.9557316 273.545579,50.4114563 272.308594,50.828125 C271.071608,51.2447937 269.756517,51.6028631 268.363281,51.9023438 C266.970045,52.2018244 265.531257,52.4361971 264.046875,52.6054688 C262.562493,52.7747404 261.065112,52.859375 259.554688,52.859375 C256.69009,52.859375 254.151053,52.4231814 251.9375,51.5507812 C249.723947,50.6783811 247.861987,49.4283936 246.351562,47.8007812 C244.841138,46.1731689 243.688806,44.1940221 242.894531,41.8632812 C242.100256,39.5325404 241.703125,36.895848 241.703125,33.953125 C241.703125,31.1145691 242.16536,28.5299596 243.089844,26.1992188 C244.014328,23.8684779 245.296867,21.8763104 246.9375,20.2226562 C248.578133,18.5690021 250.537749,17.2929732 252.816406,16.3945312 C255.095063,15.4960893 257.601549,15.046875 260.335938,15.046875 C263.226577,15.046875 265.778635,15.4960893 267.992188,16.3945312 C270.20574,17.2929732 272.074211,18.5364504 273.597656,20.125 C275.121101,21.7135496 276.299475,23.6015516 277.132812,25.7890625 C277.96615,27.9765734 278.460937,30.3723828 278.617188,32.9765625 C278.617188,33.8619836 278.428387,34.4869773 278.050781,34.8515625 C277.673175,35.2161477 277.041671,35.3984375 276.15625,35.3984375 L247.875,35.3984375 Z M260.335938,20.7109375 C257.080713,20.7109375 254.417979,21.5247314 252.347656,23.1523438 C250.277333,24.7799561 248.91667,27.039048 248.265625,29.9296875 L272.132812,29.9296875 C271.585935,26.9869645 270.348968,24.7148518 268.421875,23.1132812 C266.494782,21.5117107 263.799496,20.7109375 260.335938,20.7109375 Z" id="e" fill="#EA4335"></path>
                    <path d="M298.335938,21.21875 L293.375,21.21875 C292.489579,21.21875 291.858075,21.0234395 291.480469,20.6328125 C291.102863,20.2421855 290.914062,19.5520883 290.914062,18.5625 C290.914062,17.5729117 291.102863,16.8828145 291.480469,16.4921875 C291.858075,16.1015605 292.489579,15.90625 293.375,15.90625 L301.34375,15.90625 C302.229171,15.90625 302.860675,16.1015605 303.238281,16.4921875 C303.615887,16.8828145 303.804688,17.5729117 303.804688,18.5625 L303.804688,26.453125 C304.768234,24.7083246 305.868483,23.1328195 307.105469,21.7265625 C308.342454,20.3203055 309.664055,19.1224008 311.070312,18.1328125 C312.47657,17.1432242 313.934888,16.3815131 315.445312,15.8476562 C316.955737,15.3137994 318.453118,15.046875 319.9375,15.046875 C321.96876,15.046875 323.869783,15.5677031 325.640625,16.609375 C326.395837,17.0520855 326.877603,17.5989551 327.085938,18.25 C327.294272,18.9010449 327.216148,19.7083285 326.851562,20.671875 C326.486977,21.6093797 326.024742,22.2734355 325.464844,22.6640625 C324.904945,23.0546895 324.2474,23.028648 323.492188,22.5859375 C322.190098,21.882809 320.822924,21.53125 319.390625,21.53125 C318.218744,21.53125 317.02735,21.7460916 315.816406,22.1757812 C314.605463,22.6054709 313.433599,23.2044232 312.300781,23.9726562 C311.167963,24.7408893 310.113286,25.6653592 309.136719,26.7460937 C308.160151,27.8268283 307.300785,29.0182227 306.558594,30.3203125 C305.816403,31.6224023 305.236981,33.0156176 304.820312,34.5 C304.403644,35.9843824 304.195312,37.5208254 304.195312,39.109375 L304.195312,46.6875 L317.359375,46.6875 C318.244796,46.6875 318.8763,46.8828105 319.253906,47.2734375 C319.631512,47.6640645 319.820312,48.3541617 319.820312,49.34375 C319.820312,50.3333383 319.631512,51.0234355 319.253906,51.4140625 C318.8763,51.8046895 318.244796,52 317.359375,52 L292.203125,52 C291.317704,52 290.6862,51.8046895 290.308594,51.4140625 C289.930988,51.0234355 289.742188,50.3333383 289.742188,49.34375 C289.742188,48.3541617 289.930988,47.6640645 290.308594,47.2734375 C290.6862,46.8828105 291.317704,46.6875 292.203125,46.6875 L298.335938,46.6875 L298.335938,21.21875 Z" id="r" fill="#93A1A1"></path>
                </g>
                <path d="M19.4921875,26.125 C20.8724027,26.2812508 22.2395766,26.4830717 23.59375,26.7304688 C24.9479234,26.9778658 26.2239523,27.3229145 27.421875,27.765625 C28.3854215,28.1302102 29.2708293,28.5664037 30.078125,29.0742188 C30.8854207,29.5820338 31.5820283,30.1940068 32.1679688,30.9101562 C32.7539092,31.6263057 33.2096338,32.4596307 33.5351562,33.4101562 C33.8606787,34.3606818 34.0234375,35.4609313 34.0234375,36.7109375 C34.0234375,38.4296961 33.7044303,39.9921805 33.0664062,41.3984375 C32.4283822,42.8046945 31.4908916,44.0156199 30.2539062,45.03125 C29.0169209,46.0468801 27.500009,46.8476533 25.703125,47.4335938 C23.906241,48.0195342 21.8359492,48.3385414 19.4921875,48.390625 L19.4921875,55.34375 C19.4921875,56.2552129 19.2773459,56.906248 18.8476562,57.296875 C18.4179666,57.687502 17.721359,57.8828125 16.7578125,57.8828125 C15.794266,57.8828125 15.0976584,57.687502 14.6679688,57.296875 C14.2382791,56.906248 14.0234375,56.2552129 14.0234375,55.34375 L14.0234375,47.9609375 C12.3567625,47.6223941 10.8528713,47.0950557 9.51171875,46.3789062 C8.17056621,45.6627568 6.95313047,44.757818 5.859375,43.6640625 L5.859375,45.8515625 C5.859375,46.7630254 5.6445334,47.4140605 5.21484375,47.8046875 C4.7851541,48.1953145 4.02344297,48.390625 2.9296875,48.390625 C1.83593203,48.390625 1.0742209,48.1953145 0.64453125,47.8046875 C0.214841602,47.4140605 0,46.7630254 0,45.8515625 L0,36.4765625 C0,35.5650996 0.214841602,34.9140645 0.64453125,34.5234375 C1.0742209,34.1328105 1.83593203,33.9375 2.9296875,33.9375 C3.50260703,33.9375 3.94531094,34.067707 4.2578125,34.328125 C4.57031406,34.588543 4.83072813,34.9921848 5.0390625,35.5390625 C5.79427461,37.4921973 6.90103438,39.0286402 8.359375,40.1484375 C9.81771563,41.2682348 11.7057176,42.0234355 14.0234375,42.4140625 L14.0234375,31.515625 C12.6171805,31.3333324 11.256517,31.1119805 9.94140625,30.8515625 C8.62629551,30.5911445 7.38281836,30.2265648 6.2109375,29.7578125 C5.32551641,29.4192691 4.51823281,29.0026066 3.7890625,28.5078125 C3.05989219,28.0130184 2.42838809,27.4270867 1.89453125,26.75 C1.36067441,26.0729133 0.944011914,25.2916711 0.64453125,24.40625 C0.345050586,23.5208289 0.1953125,22.5052141 0.1953125,21.359375 C0.1953125,19.6145746 0.546871484,18.0716213 1.25,16.7304688 C1.95312852,15.3893162 2.9231709,14.2630254 4.16015625,13.3515625 C5.3971416,12.4400996 6.85546035,11.7500023 8.53515625,11.28125 C10.2148521,10.8124977 12.0442609,10.578125 14.0234375,10.578125 L14.0234375,4.2890625 C14.0234375,3.37759961 14.2382791,2.72656445 14.6679688,2.3359375 C15.0976584,1.94531055 15.794266,1.75 16.7578125,1.75 C17.721359,1.75 18.4179666,1.94531055 18.8476562,2.3359375 C19.2773459,2.72656445 19.4921875,3.37759961 19.4921875,4.2890625 L19.4921875,11.0859375 C20.8724027,11.4505227 22.1354109,11.9648404 23.28125,12.6289062 C24.4270891,13.2929721 25.4557246,14.0416625 26.3671875,14.875 L26.3671875,13.1171875 C26.3671875,12.2057246 26.5820291,11.5546895 27.0117188,11.1640625 C27.4414084,10.7734355 28.2031195,10.578125 29.296875,10.578125 C30.3906305,10.578125 31.1523416,10.7734355 31.5820312,11.1640625 C32.0117209,11.5546895 32.2265625,12.2057246 32.2265625,13.1171875 L32.2265625,20.5390625 C32.2265625,21.4505254 32.0117209,22.1015605 31.5820312,22.4921875 C31.1523416,22.8828145 30.3906305,23.078125 29.296875,23.078125 C28.4114539,23.078125 27.7864602,22.7395867 27.421875,22.0625 C26.5885375,20.4739504 25.5078191,19.2304732 24.1796875,18.3320312 C22.8515559,17.4335893 21.2890715,16.8151059 19.4921875,16.4765625 L19.4921875,26.125 Z M19.4921875,42.7265625 C22.2786598,42.5963535 24.3684826,41.9843805 25.7617188,40.890625 C27.1549549,39.7968695 27.8515625,38.4036543 27.8515625,36.7109375 C27.8515625,35.7734328 27.5520863,35.0247424 26.953125,34.4648438 C26.3541637,33.9049451 25.5468801,33.4557309 24.53125,33.1171875 C23.8281215,32.8828113 23.0533896,32.6940111 22.2070312,32.5507812 C21.3606729,32.4075514 20.455734,32.270834 19.4921875,32.140625 L19.4921875,42.7265625 Z M14.0234375,16.2421875 C11.6015504,16.2942711 9.72005879,16.7630164 8.37890625,17.6484375 C7.03775371,18.5338586 6.3671875,19.7708254 6.3671875,21.359375 C6.3671875,22.2187543 6.64713262,22.9088516 7.20703125,23.4296875 C7.76692988,23.9505234 8.54166172,24.3671859 9.53125,24.6796875 C10.1562531,24.8880219 10.8463504,25.057291 11.6015625,25.1875 C12.3567746,25.317709 13.1640582,25.447916 14.0234375,25.578125 L14.0234375,16.2421875 Z" id="$" fill="#93A1A1"></path>
            </g>
        </g>
    </g>
</svg>